<svg id="Layer_5" enable-background="new 0 0 64 64" height="512" viewBox="0 0 64 64" width="512" xmlns="http://www.w3.org/2000/svg" xmlns:xlink="http://www.w3.org/1999/xlink"><linearGradient id="SVGID_1_" gradientUnits="userSpaceOnUse" x1="32" x2="32" y1="63" y2="1"><stop offset="0" stop-color="#9f2fff"/><stop offset="1" stop-color="#0bb1d3"/></linearGradient><path d="m10.186 18.606-2.804-5.606h-2.382v-2h3.618l1.196 2.394 3.186-9.556 2.721 8.162h3.279v2h-4.721l-1.279-3.838zm52.814-1.606v26c0 2.757-2.243 5-5 5h-5v1c0 .552.448 1 1 1h6c1.654 0 3 1.346 3 3s-1.346 3-3 3h-15.184c-.414 1.161-1.514 2-2.816 2h-4.158c-.253.224-.539.415-.856.559l-8.136 3.698c-.95.433-1.957.667-2.994.72v.023h-22.856v-9.289c0-4.383 2.425-8.207 6-10.214v-2.808c-3.617-1.511-6-5.046-6-9.014v-2.676-1-1.999c0-2.081.918-3.947 2.364-5.23-2.722-2.063-4.364-5.302-4.364-8.77 0-6.065 4.935-11 11-11s11 4.935 11 11h14.051c.507-5.598 5.221-10 10.949-10 5.76 0 10.492 4.453 10.954 10.096 2.302.448 4.046 2.474 4.046 4.904zm-24-4c0 4.962 4.037 9 9 9s9-4.038 9-9-4.037-9-9-9-9 4.038-9 9zm-16.203 1c-.536 2.921-2.216 5.492-4.712 7.148.385.55.676 1.17.815 1.851h2.1c1.654 0 3 1.346 3 3s-1.346 3-3 3h-1.895l.74 7.399c.055.549-.016 1.088-.168 1.602h41.323v-21c0-1.325-.869-2.439-2.063-2.835-.584 5.519-5.265 9.835-10.937 9.835-5.728 0-10.442-4.402-10.949-10zm-1.797 12.999c.552 0 1-.449 1-1s-.448-1-1-1h-5.764c-.382 0-.725.212-.895.553l-.724 1.447zm-13.803-7.409c.859-.377 1.806-.59 2.803-.59h4.001c.944 0 1.823.269 2.577.726 2.733-1.62 4.422-4.519 4.422-7.726 0-4.962-4.037-9-9-9s-9 4.038-9 9c0 3.09 1.604 5.945 4.197 7.59zm-2.197 7.409h6.382l1.171-2.342c.512-1.023 1.54-1.658 2.684-1.658h1.592c-.413-1.164-1.524-1.999-2.828-1.999h-4.001c-2.757 0-5 2.243-5 5zm4 11.458v-3.043l-.646-.646c-.861-.861-1.354-2.052-1.354-3.268 0-.902.262-1.761.741-2.501h-2.741v2.676c0 2.861 1.566 5.429 4 6.782zm2-3.871v8.027c1.168-.392 2.413-.613 3.711-.613.097 0 .192.011.289.013v-1.013h-2v-2h2.681c.575 0 1.139-.233 1.545-.64.466-.466.695-1.108.629-1.762l-.76-7.6h-6.68l-.647.647c-.496.497-.768 1.155-.768 1.855 0 .69.28 1.366.768 1.854zm20.507 24.267-1.171-2.634-5.921 2.692-.828-1.82 1.33-.605-.593-4.147c-.679-4.755-4.812-8.339-9.613-8.339-5.355 0-9.711 4.356-9.711 9.711v7.289h15.043c-1.174-1.006-2.086-2.331-2.559-3.906l-1.442-4.807 1.916-.574 1.442 4.807c.804 2.68 3.224 4.48 6.021 4.48.904 0 1.779-.189 2.601-.563zm9.493-8.752v-2.101h-8v4.476c1.238-1.526 3.187-2.476 5.236-2.476h1.764c.342 0 .677.035 1 .101zm-10-2.101h-6.079c.693 1.229 1.174 2.595 1.383 4.055l.51 3.568 4.186-1.903zm6 7.434c0-.79-.644-1.434-1.434-1.434-.243 0-.447.044-.632.128l-2.778 1.263 1.171 2.635 2.831-1.287c.512-.233.842-.745.842-1.305zm6-.434c0-1.654-1.346-3-3-3h-1.764c-.499 0-.986.089-1.452.239 1.3.498 2.216 1.738 2.216 3.194 0 .192-.02.381-.052.566h3.052c.552.001 1-.447 1-.999zm8-6v-1h-8v3.026c.953.721 1.652 1.762 1.899 2.974h15.101c.552 0 1-.448 1-1s-.448-1-1-1h-6c-1.654 0-3-1.346-3-3zm10-6v-3h-42.636c-.405.34-.865.598-1.364.765v1.47c2.542.514 4.811 1.865 6.488 3.765h34.512c1.654 0 3-1.346 3-3zm-12 1h2v-2h-2zm8 0h2v-2h-2zm-4 0h2v-2h-2zm-9-36h-2v2h2zm10 0h-8v2h8zm-10 4h-2v2h2zm10 0h-8v2h8zm-10 4h-2v2h2zm10 0h-8v2h8zm-18 20h-10v-8h10zm-2-6h-6v4h6zm2-6h-10v2h10zm0-4h-10v2h10zm0-4h-10v2h10zm4 18h-2v2h2zm2 2h17v-2h-17zm17-6h-21v2h21zm0-4h-21v2h21z" fill="url(#SVGID_1_)"/></svg>